<svg width="160" height="40" viewBox="0 0 160 40" xmlns="http://www.w3.org/2000/svg">
<defs>
<linearGradient id="logoGrad" x1="0%" y1="100%" x2="100%" y2="0%">
<stop offset="0%" stop-color="#6366f1"/>
<stop offset="45%" stop-color="#a855f7"/>
<stop offset="100%" stop-color="#ec4899"/>
</linearGradient>
</defs>
<g transform="translate(18,20) rotate(8) scale(0.24)">
<path d="M2,-74 C1,-60 0,-40 -1,-18 C-2,5 -2,28 -3,48 C-3,58 -4,65 -5,72" fill="none" stroke="url(#logoGrad)" stroke-width="6" stroke-linecap="round"/>
<path d="M4,-72 C3,-58 2,-38 1,-16 C0,6 -1,30 -2,50" fill="none" stroke="url(#logoGrad)" stroke-width="1.2" stroke-linecap="round" opacity="0.15"/>
<path d="M-2,-46 C8,-56 28,-58 38,-45 C48,-30 46,-10 36,2 C26,14 8,18 -4,12 C-14,6 -20,-8 -18,-24 C-16,-36 -8,-46 -2,-46" fill="none" stroke="url(#logoGrad)" stroke-width="5" stroke-linecap="round" stroke-linejoin="round"/>
<circle cx="-6" cy="74" r="2" fill="#6366f1" opacity="0.3"/>
<circle cx="40" cy="-44" r="1.2" fill="#ec4899" opacity="0.25"/>
</g>
<text x="42" y="27" font-family="Inter,'Helvetica Neue',sans-serif" font-size="22" font-weight="700" fill="#e2e8f0">Pretzel</text>
</svg>