<svg width="48" height="48" viewBox="0 0 48 48" xmlns="http://www.w3.org/2000/svg">
<defs>
<linearGradient id="iconGrad" x1="0%" y1="0%" x2="100%" y2="100%">
<stop offset="0%" stop-color="#6366f1"/>
<stop offset="100%" stop-color="#ec4899"/>
</linearGradient>
</defs>
<rect width="48" height="48" rx="12" fill="url(#iconGrad)"/>
<g transform="translate(24,25) rotate(8) scale(0.2)">
<path d="M2,-74 C1,-60 0,-40 -1,-18 C-2,5 -2,28 -3,48 C-3,58 -4,65 -5,72" fill="none" stroke="white" stroke-width="7" stroke-linecap="round"/>
<path d="M-2,-46 C8,-56 28,-58 38,-45 C48,-30 46,-10 36,2 C26,14 8,18 -4,12 C-14,6 -20,-8 -18,-24 C-16,-36 -8,-46 -2,-46" fill="none" stroke="white" stroke-width="6" stroke-linecap="round" stroke-linejoin="round"/>
</g>
</svg>